<?xml version="1.0" standalone="no"?>
<!DOCTYPE svg PUBLIC "-//W3C//DTD SVG 20010904//EN"
 "http://www.w3.org/TR/2001/REC-SVG-20010904/DTD/svg10.dtd">
<svg version="1.0" xmlns="http://www.w3.org/2000/svg"
 width="512.000000pt" height="512.000000pt" viewBox="0 0 512.000000 512.000000"
 preserveAspectRatio="xMidYMid meet">
<metadata>
Created by potrace 1.11, written by Peter Selinger 2001-2013
</metadata>
<g transform="translate(0.000000,512.000000) scale(0.100000,-0.100000)"
fill="#000000" stroke="none">
<path d="M0 2560 l0 -2560 2560 0 2560 0 0 2560 0 2560 -2560 0 -2560 0 0
-2560z m3769 1112 c34 -34 46 -112 35 -244 -6 -86 -8 -90 -33 -99 -18 -6 -32
-22 -40 -45 -17 -47 -33 -39 -49 27 -26 104 -66 115 -164 42 -78 -58 -208
-184 -208 -201 0 -28 50 -60 152 -96 120 -43 97 -43 418 -5 111 13 232 19 371
19 l207 0 31 -36 c36 -40 33 -54 -11 -54 -25 0 -29 -3 -23 -17 3 -10 9 -30 12
-45 7 -34 -8 -36 -47 -8 -39 28 -109 39 -280 47 -141 6 -413 -9 -475 -25 -29
-8 -30 -11 -30 -63 0 -53 -1 -54 -40 -74 -59 -29 -206 -26 -350 8 -219 52
-343 59 -1052 64 l-653 5 0 -161 0 -161 865 0 865 0 0 -610 0 -611 -932 4
c-828 3 -943 6 -1018 21 -119 23 -242 62 -326 102 -73 34 -194 117 -194 132 0
5 37 58 83 119 68 91 86 109 99 102 40 -22 259 -28 986 -29 l772 0 0 160 0
160 -825 0 -825 0 0 610 0 610 793 2 793 3 172 108 c178 112 210 127 277 127
43 0 234 48 410 104 141 44 196 46 234 8z m-3078 -1808 c17 -21 0 -49 -32 -49
-27 0 -37 28 -19 50 16 19 34 19 51 -1z m107 -31 c2 -13 -10 -41 -30 -67 -26
-36 -39 -45 -58 -43 -38 3 -36 36 5 91 40 52 77 61 83 19z m102 -12 c8 -16 -1
-34 -52 -103 -59 -80 -75 -98 -90 -98 -9 0 -38 29 -38 38 0 4 29 46 65 95 67
90 94 106 115 68z"/>
<path d="M3072 3483 c-23 -9 -34 -54 -21 -85 20 -50 69 -30 69 28 0 25 -23 68
-33 63 -1 0 -8 -3 -15 -6z"/>
</g>
</svg>
